<svg width="83" height="23" viewBox="0 0 83 23" fill="none" xmlns="http://www.w3.org/2000/svg">
<path fill-rule="evenodd" clip-rule="evenodd" d="M83 0V23H70.3539V0H83ZM27.4602 7.44409C28.0624 7.44409 28.6603 7.4853 29.2539 7.56774C29.8475 7.65018 30.3852 7.81917 30.8669 8.07473C31.3487 8.33029 31.7358 8.68889 32.0283 9.15054C32.3208 9.61219 32.467 10.214 32.467 10.9559V17.5344C32.467 18.029 32.4971 18.3918 32.5574 18.6226C32.6176 18.8534 32.8198 18.9688 33.1639 18.9688C33.3531 18.9688 33.5768 18.9276 33.8349 18.8452V20.4774C33.4564 20.6918 32.9316 20.7989 32.2606 20.7989C31.6928 20.7989 31.2411 20.6464 30.9056 20.3414C30.5701 20.0364 30.4024 19.5376 30.4024 18.8452C29.8002 19.5376 29.099 20.0364 28.299 20.3414C27.4989 20.6464 26.6343 20.7989 25.7052 20.7989C25.103 20.7989 24.5309 20.733 23.989 20.6011C23.447 20.4692 22.9781 20.2631 22.5824 19.9828C22.1867 19.7025 21.8727 19.3357 21.6404 18.8823C21.4081 18.4289 21.292 17.8806 21.292 17.2376C21.292 16.5122 21.421 15.9186 21.6791 15.457C21.9372 14.9953 22.277 14.6203 22.6985 14.3317C23.1201 14.0432 23.6018 13.8247 24.1438 13.6763C24.6858 13.528 25.2407 13.4043 25.8085 13.3054C26.4107 13.19 26.9827 13.1034 27.5247 13.0457C28.0667 12.988 28.5441 12.9056 28.9571 12.7984C29.37 12.6912 29.6969 12.5346 29.9378 12.3285C30.1787 12.1224 30.2991 11.8215 30.2991 11.4258C30.2991 10.9642 30.2088 10.5932 30.0281 10.3129C29.8475 10.0326 29.6152 9.81828 29.3313 9.66989C29.0474 9.52151 28.7291 9.42258 28.3764 9.37312C28.0237 9.32366 27.6753 9.29892 27.3312 9.29892C26.402 9.29892 25.6278 9.46792 25.0084 9.80591C24.389 10.1439 24.0535 10.7828 24.0019 11.7226H21.8081C21.8426 10.9312 22.0146 10.2634 22.3243 9.71936C22.634 9.17527 23.0469 8.73423 23.5631 8.39624C24.0793 8.05824 24.6686 7.81505 25.331 7.66667C25.9934 7.51828 26.7031 7.44409 27.4602 7.44409ZM54.8172 7.44409C56.0044 7.44409 56.9894 7.67903 57.7722 8.14892C58.5551 8.61882 59.1831 9.21648 59.6562 9.94194C60.1294 10.6674 60.4563 11.4588 60.637 12.3161C60.8176 13.1735 60.8908 13.9896 60.8563 14.7645H50.8685C50.8513 15.3251 50.9201 15.8568 51.0749 16.3597C51.2298 16.8625 51.4793 17.3077 51.8234 17.6952C52.1675 18.0826 52.6062 18.3918 53.1396 18.6226C53.673 18.8534 54.301 18.9688 55.0236 18.9688C55.9527 18.9688 56.7141 18.7627 57.3077 18.3505C57.9013 17.9383 58.2927 17.3118 58.482 16.471H60.6499C60.3574 17.9054 59.7122 18.9853 58.7142 19.7108C57.7163 20.4362 56.4603 20.7989 54.9462 20.7989C53.8795 20.7989 52.9547 20.6341 52.1718 20.3043C51.3889 19.9746 50.7308 19.5129 50.1974 18.9194C49.6641 18.3258 49.264 17.6168 48.9974 16.7925C48.7307 15.9681 48.5801 15.0695 48.5457 14.0968C48.5457 13.124 48.7006 12.2337 49.0103 11.4258C49.32 10.6179 49.7544 9.91721 50.3136 9.32366C50.8728 8.7301 51.5352 8.26846 52.3008 7.93871C53.0665 7.60896 53.9053 7.44409 54.8172 7.44409ZM76.1349 7.44409C75.55 7.44409 74.9607 7.51416 74.3671 7.6543C73.7735 7.79445 73.2401 8.00878 72.7669 8.29731C72.2938 8.58584 71.9067 8.96093 71.6056 9.42258C71.3045 9.88423 71.1539 10.4366 71.1539 11.0796C71.1539 11.9039 71.369 12.547 71.7991 13.0086C72.2293 13.4703 72.7669 13.8289 73.4122 14.0844C74.0574 14.34 74.7585 14.5378 75.5155 14.678C76.2726 14.8181 76.9737 14.9747 77.6189 15.1479C78.2641 15.321 78.8018 15.5477 79.232 15.828C79.6621 16.1082 79.8772 16.5204 79.8772 17.0645C79.8772 17.4602 79.7739 17.7858 79.5675 18.0414C79.361 18.297 79.0986 18.4907 78.7803 18.6226C78.462 18.7545 78.1136 18.8452 77.7351 18.8946C77.3565 18.9441 76.9952 18.9688 76.6511 18.9688C76.2038 18.9688 75.7693 18.9276 75.3478 18.8452C74.9263 18.7627 74.5477 18.6267 74.2122 18.4371C73.8767 18.2475 73.6057 17.9919 73.3992 17.6704C73.1928 17.3489 73.0809 16.9573 73.0637 16.4957H70.87C70.9044 17.2871 71.0765 17.959 71.3862 18.5113C71.6959 19.0636 72.1088 19.5088 72.625 19.8468C73.1412 20.1848 73.7348 20.428 74.4058 20.5763C75.0768 20.7247 75.7822 20.7989 76.5221 20.7989C77.1931 20.7989 77.8684 20.7371 78.548 20.6134C79.2277 20.4898 79.8385 20.2713 80.3804 19.9581C80.9224 19.6448 81.3612 19.2326 81.6967 18.7215C82.0322 18.2104 82.1999 17.5674 82.1999 16.7925C82.1999 16.1824 82.0752 15.6713 81.8257 15.2591C81.5762 14.847 81.2493 14.5048 80.845 14.2328C80.4407 13.9608 79.9761 13.7423 79.4513 13.5774C78.9266 13.4125 78.3889 13.2724 77.8383 13.157C77.3221 13.0416 76.806 12.9303 76.2898 12.8231C75.7736 12.716 75.3091 12.5841 74.8961 12.4274C74.4832 12.2708 74.1434 12.0729 73.8767 11.8339C73.61 11.5948 73.4767 11.2939 73.4767 10.9312C73.4767 10.6014 73.5627 10.3335 73.7348 10.1274C73.9068 9.92132 74.1305 9.75645 74.4058 9.6328C74.6811 9.50914 74.9865 9.42258 75.322 9.37312C75.6575 9.32366 75.9887 9.29892 76.3156 9.29892C76.6769 9.29892 77.0339 9.33602 77.3867 9.41022C77.7394 9.48441 78.062 9.60394 78.3545 9.76882C78.647 9.93369 78.8878 10.1522 79.0771 10.4242C79.2664 10.6962 79.3782 11.0383 79.4126 11.4505H81.6063C81.5547 10.6756 81.3827 10.0285 81.0902 9.50914C80.7977 8.98978 80.4062 8.5776 79.9159 8.27258C79.4255 7.96756 78.862 7.75323 78.2254 7.62957C77.5888 7.50591 76.892 7.44409 76.1349 7.44409ZM14.2721 7.44409C14.9431 7.44409 15.5496 7.51416 16.0916 7.6543C16.6336 7.79445 17.0981 8.0129 17.4852 8.30968C17.8724 8.60645 18.1735 8.98978 18.3885 9.45968C18.6036 9.92957 18.7111 10.4943 18.7111 11.1538V20.5269H16.5174V12.143C16.5174 11.7473 16.483 11.3763 16.4142 11.0301C16.3454 10.6839 16.2163 10.383 16.0271 10.1274C15.8378 9.87186 15.5754 9.66989 15.2399 9.52151C14.9044 9.37312 14.4699 9.29892 13.9366 9.29892C12.8526 9.29892 12.0009 9.5957 11.3815 10.1892C10.7621 10.7828 10.4524 11.5742 10.4524 12.5634V20.5269H8.25871V12.143C8.25871 11.7308 8.21999 11.3516 8.14257 11.0054C8.06514 10.6591 7.9318 10.3582 7.74254 10.1027C7.55327 9.84713 7.29949 9.64928 6.98119 9.50914C6.66288 9.369 6.25425 9.29892 5.75529 9.29892C5.11867 9.29892 4.5724 9.42258 4.11645 9.66989C3.6605 9.91721 3.29058 10.214 3.00669 10.5602C2.72279 10.9065 2.51633 11.2651 2.38728 11.636C2.25824 12.007 2.19372 12.3161 2.19372 12.5634V20.5269H0V7.74086H2.06468V9.62043H2.11629C3.11423 8.16953 4.55088 7.44409 6.42631 7.44409C7.25218 7.44409 8.00062 7.60896 8.67164 7.93871C9.34266 8.26846 9.81581 8.82903 10.0911 9.62043C10.5385 8.92795 11.1277 8.39212 11.859 8.0129C12.5902 7.63369 13.3946 7.44409 14.2721 7.44409ZM38.1965 2.86882V13.3301L44.2873 7.74086H47.2295L41.9387 12.3903L47.6166 20.5269H44.8293L40.2612 13.8495L38.1965 15.6796V20.5269H36.0028V2.86882H38.1965ZM70.07 7.44409V9.66989C69.1925 9.66989 68.444 9.7853 67.8246 10.0161C67.2052 10.247 66.7063 10.5849 66.3277 11.0301C65.9492 11.4753 65.6739 12.0152 65.5019 12.65C65.3298 13.2848 65.2438 14.0143 65.2438 14.8387V20.5269H63.0501V7.74086H65.1147V10.4366H65.1664C65.6997 9.39784 66.3535 8.63119 67.1278 8.13656C67.9021 7.64193 68.8828 7.41111 70.07 7.44409ZM30.2733 13.9237C29.998 14.1215 29.6367 14.2658 29.1894 14.3565C28.742 14.4471 28.2732 14.5213 27.7828 14.579C27.2924 14.6367 26.7978 14.7027 26.2988 14.7769C25.7999 14.8511 25.3525 14.9706 24.9568 15.1355C24.561 15.3004 24.2384 15.5353 23.989 15.8403C23.7395 16.1453 23.6147 16.5616 23.6147 17.0892C23.6147 17.4355 23.6879 17.7281 23.8341 17.9672C23.9804 18.2063 24.1696 18.4 24.4019 18.5484C24.6342 18.6968 24.9052 18.8039 25.2149 18.8699C25.5246 18.9358 25.8515 18.9688 26.1956 18.9688C26.9182 18.9688 27.5376 18.874 28.0538 18.6844C28.57 18.4948 28.9915 18.2557 29.3184 17.9672C29.6453 17.6787 29.8862 17.3654 30.041 17.0274C30.1959 16.6894 30.2733 16.372 30.2733 16.0753V13.9237ZM54.6881 9.29892C54.1203 9.29892 53.6085 9.39373 53.1525 9.58333C52.6966 9.77294 52.3051 10.0326 51.9782 10.3624C51.6513 10.6921 51.3932 11.0754 51.204 11.5124C51.0147 11.9493 50.9029 12.4151 50.8685 12.9097H58.5336C58.4992 12.4151 58.383 11.9452 58.1852 11.5C57.9873 11.0548 57.7206 10.6715 57.3851 10.35C57.0496 10.0285 56.6539 9.77294 56.1979 9.58333C55.742 9.39373 55.2387 9.29892 54.6881 9.29892Z" fill="#FFE600"/>
</svg>
