<svg width="25" height="23" viewBox="0 0 25 23" fill="none" xmlns="http://www.w3.org/2000/svg">
<path d="M21.7078 1.63727C20.4364 0.402811 18.3775 0.402811 17.1061 1.63727L15.9542 2.76381L3.69246 14.6841L3.6664 14.7096C3.66009 14.7157 3.66009 14.7223 3.65337 14.7223C3.64034 14.7413 3.6208 14.7601 3.60797 14.7791C3.60797 14.7854 3.60126 14.7854 3.60126 14.7918C3.58823 14.8108 3.58192 14.8235 3.56868 14.8425C3.56237 14.8488 3.56237 14.855 3.55586 14.8615C3.54934 14.8805 3.54283 14.8932 3.53611 14.9122C3.53611 14.9183 3.5298 14.9183 3.5298 14.9249L0.809279 22.8821C0.729474 23.1087 0.790142 23.3595 0.96543 23.5277C1.0886 23.6459 1.25473 23.712 1.42757 23.7114C1.49821 23.7102 1.56825 23.6995 1.63584 23.6797L9.81042 21.0273C9.81673 21.0273 9.81673 21.0273 9.82345 21.0211C9.84401 21.0152 9.86376 21.0067 9.88188 20.9956C9.88697 20.995 9.89145 20.9928 9.89511 20.9894C9.91445 20.9768 9.94051 20.9639 9.96006 20.9512C9.9794 20.9387 9.99915 20.9197 10.0187 20.9071C10.0252 20.9005 10.0315 20.9005 10.0315 20.8944C10.0382 20.888 10.0513 20.8819 10.0578 20.869L23.4714 7.82205C24.7406 6.58541 24.7406 4.58283 23.4714 3.34639L21.7078 1.63727ZM9.60215 19.5395L5.07237 15.1338L16.4099 4.10619L20.9396 8.51195L9.60215 19.5395ZM4.43433 16.3049L8.39163 20.1538L2.44937 22.0781L4.43433 16.3049ZM22.5539 6.93571L21.8639 7.61314L17.3339 3.20698L18.0306 2.52975C18.7926 1.78915 20.0278 1.78915 20.79 2.52975L22.5602 4.25154C23.3165 4.9961 23.3137 6.19472 22.5539 6.93571Z" fill="#FFE600"/>
</svg>
